<svg width="320" height="414" viewBox="0 0 320 414" fill="none" xmlns="http://www.w3.org/2000/svg">
<path opacity="0.3" d="M341.829 19.1297L341.082 18.4646L340.417 19.2113L323.781 37.8898L323.116 38.6366L323.862 39.3017L342.541 55.9381L343.288 56.6032L343.953 55.8564L360.589 37.178L361.254 36.4312L360.507 35.7661L341.829 19.1297ZM329.139 67.4543L67.6206 361.074L50.6691 345.976L312.188 52.3561L329.139 67.4543ZM67.7838 363.898L69.9886 365.861C74.7341 370.088 75.1547 377.361 70.928 382.107L47.637 408.257C43.4103 413.002 36.1369 413.423 31.3914 409.196L5.24152 385.905C0.496014 381.678 0.0754339 374.405 4.30213 369.659L27.5931 343.51C31.8198 338.764 39.0932 338.344 43.8387 342.57L47.8453 346.139L47.839 346.146L48.5857 346.811L67.0307 363.24L67.7775 363.905L67.7838 363.898ZM37.971 394.287L38.7177 394.952L39.3828 394.206L56.0193 375.527L56.6844 374.78L55.9376 374.115L37.2591 357.479L36.5124 356.814L35.8473 357.561L19.2108 376.239L18.5457 376.986L19.2925 377.651L37.971 394.287ZM309.811 47.5558C305.066 43.3291 304.645 36.0557 308.872 31.3102L332.163 5.16034C336.39 0.414833 343.663 -0.00574676 348.409 4.22095L374.558 27.5119C379.304 31.7386 379.724 39.012 375.498 43.7575L352.207 69.9074C347.98 74.6529 340.707 75.0735 335.961 70.8468L309.811 47.5558Z" fill="#EAEAEA" stroke="#DDDDDD" stroke-width="2"/>
</svg>
