<svg width="24" height="25" viewBox="0 0 24 25" fill="none" xmlns="http://www.w3.org/2000/svg">
<mask id="mask0_356_2723" style="mask-type:alpha" maskUnits="userSpaceOnUse" x="0" y="0" width="24" height="25">
<rect y="0.84668" width="24" height="24" fill="#D9D9D9"/>
</mask>
<g mask="url(#mask0_356_2723)">
<path d="M4.19225 15.0044H5.14425L5.7095 13.4121H8.44425L9.025 15.0044H9.97125L7.60375 8.70814H6.55L4.19225 15.0044ZM6.0155 12.5831L7.052 9.71589H7.102L8.1385 12.5831H6.0155ZM13.9423 10.5929V9.27739C14.4859 9.02489 15.0548 8.83548 15.649 8.70914C16.2433 8.58281 16.8603 8.51964 17.5 8.51964C17.9013 8.51964 18.2911 8.54823 18.6693 8.60539C19.0474 8.66239 19.4269 8.73773 19.8078 8.83139V10.0851C19.4334 9.95431 19.0613 9.85939 18.6913 9.80039C18.3214 9.74139 17.9243 9.71189 17.5 9.71189C16.8603 9.71189 16.2408 9.78789 15.6413 9.93989C15.0419 10.0919 14.4756 10.3096 13.9423 10.5929ZM13.9423 16.0736V14.7389C14.4731 14.4864 15.0404 14.297 15.6443 14.1706C16.2481 14.0445 16.8667 13.9814 17.5 13.9814C17.9013 13.9814 18.2911 14.0099 18.6693 14.0669C19.0474 14.1239 19.4269 14.1992 19.8078 14.2929V15.5466C19.4334 15.4158 19.0613 15.3209 18.6913 15.2619C18.3214 15.2031 17.9243 15.1736 17.5 15.1736C16.8603 15.1736 16.2408 15.2502 15.6413 15.4034C15.0419 15.5566 14.4756 15.78 13.9423 16.0736ZM13.9423 13.3429V12.0081C14.4859 11.7556 15.0548 11.5662 15.649 11.4399C16.2433 11.3136 16.8603 11.2504 17.5 11.2504C17.9013 11.2504 18.2911 11.279 18.6693 11.3361C19.0474 11.3931 19.4269 11.4685 19.8078 11.5621V12.8159C19.4334 12.6851 19.0613 12.5901 18.6913 12.5311C18.3214 12.4723 17.9243 12.4429 17.5 12.4429C16.8603 12.4429 16.2408 12.5221 15.6413 12.6804C15.0419 12.8387 14.4756 13.0596 13.9423 13.3429ZM6.5 16.8659C7.32817 16.8659 8.13392 16.9598 8.91725 17.1476C9.70058 17.3355 10.4782 17.6301 11.25 18.0314V8.20039C10.5475 7.74273 9.78725 7.39948 8.96925 7.17064C8.15125 6.94181 7.32817 6.82739 6.5 6.82739C5.9 6.82739 5.33942 6.87448 4.81825 6.96864C4.29708 7.06298 3.7615 7.21714 3.2115 7.43114C3.13467 7.45681 3.08017 7.49373 3.048 7.54189C3.016 7.58989 3 7.64273 3 7.70039V17.1581C3 17.248 3.03208 17.3137 3.09625 17.3554C3.16025 17.3971 3.23075 17.4018 3.30775 17.3696C3.78208 17.2081 4.28267 17.0838 4.8095 16.9966C5.3365 16.9095 5.9 16.8659 6.5 16.8659ZM12.75 18.0314C13.5218 17.6301 14.2994 17.3355 15.0828 17.1476C15.8661 16.9598 16.6718 16.8659 17.5 16.8659C18.1 16.8659 18.6635 16.9095 19.1905 16.9966C19.7173 17.0838 20.2179 17.2081 20.6923 17.3696C20.7693 17.4018 20.8398 17.3971 20.9038 17.3554C20.9679 17.3137 21 17.248 21 17.1581V7.70039C21 7.64273 20.984 7.59148 20.952 7.54664C20.9198 7.50181 20.8653 7.46331 20.7885 7.43114C20.2385 7.21714 19.7029 7.06298 19.1818 6.96864C18.6606 6.87448 18.1 6.82739 17.5 6.82739C16.6718 6.82739 15.8487 6.94181 15.0307 7.17064C14.2127 7.39948 13.4525 7.74273 12.75 8.20039V18.0314ZM12 20.2311C11.1937 19.6363 10.3238 19.1767 9.3905 18.8524C8.45717 18.5281 7.49367 18.3659 6.5 18.3659C5.88983 18.3659 5.2905 18.4335 4.702 18.5686C4.1135 18.704 3.54617 18.9031 3 19.1659C2.64367 19.3299 2.30458 19.3039 1.98275 19.0879C1.66092 18.8719 1.5 18.5658 1.5 18.1696V7.31214C1.5 7.09664 1.5555 6.89439 1.6665 6.70539C1.77733 6.51623 1.93725 6.37998 2.14625 6.29664C2.82308 5.96714 3.5285 5.72323 4.2625 5.56489C4.9965 5.40656 5.74233 5.32739 6.5 5.32739C7.473 5.32739 8.42367 5.46039 9.352 5.72639C10.2802 5.99256 11.1628 6.38523 12 6.90439C12.8372 6.38523 13.7198 5.99256 14.648 5.72639C15.5763 5.46039 16.527 5.32739 17.5 5.32739C18.2577 5.32739 19.0035 5.40656 19.7375 5.56489C20.4715 5.72323 21.1769 5.96714 21.8538 6.29664C22.0627 6.37998 22.2227 6.51623 22.3335 6.70539C22.4445 6.89439 22.5 7.09664 22.5 7.31214V18.1696C22.5 18.5658 22.3327 18.8687 21.998 19.0784C21.6633 19.2879 21.3114 19.3106 20.9423 19.1466C20.4026 18.8901 19.8433 18.6959 19.2645 18.5639C18.6857 18.4319 18.0975 18.3659 17.5 18.3659C16.5063 18.3659 15.5428 18.5281 14.6095 18.8524C13.6762 19.1767 12.8063 19.6363 12 20.2311Z" fill="white"/>
</g>
</svg>
