<svg width="24" height="25" viewBox="0 0 24 25" fill="none" xmlns="http://www.w3.org/2000/svg">
<mask id="mask0_356_2712" style="mask-type:alpha" maskUnits="userSpaceOnUse" x="0" y="0" width="24" height="25">
<rect y="0.84668" width="24" height="24" fill="#D9D9D9"/>
</mask>
<g mask="url(#mask0_356_2712)">
<path d="M8.6 16.0909L5.35575 12.8467L8.6 9.60243L9.64425 10.6717L7.46925 12.8467L9.64425 15.0217L8.6 16.0909ZM15.4 16.0909L14.3558 15.0217L16.5307 12.8467L14.3558 10.6717L15.4 9.60243L18.6443 12.8467L15.4 16.0909ZM5.30775 21.3467C4.80258 21.3467 4.375 21.1717 4.025 20.8217C3.675 20.4717 3.5 20.0441 3.5 19.5389V15.8467H5V19.5389C5 19.6159 5.03208 19.6864 5.09625 19.7504C5.16025 19.8146 5.23075 19.8467 5.30775 19.8467H9V21.3467H5.30775ZM15 21.3467V19.8467H18.6923C18.7692 19.8467 18.8398 19.8146 18.9038 19.7504C18.9679 19.6864 19 19.6159 19 19.5389V15.8467H20.5V19.5389C20.5 20.0441 20.325 20.4717 19.975 20.8217C19.625 21.1717 19.1974 21.3467 18.6923 21.3467H15ZM3.5 9.84668V6.15443C3.5 5.64926 3.675 5.22168 4.025 4.87168C4.375 4.52168 4.80258 4.34668 5.30775 4.34668H9V5.84668H5.30775C5.23075 5.84668 5.16025 5.87876 5.09625 5.94293C5.03208 6.00693 5 6.07743 5 6.15443V9.84668H3.5ZM19 9.84668V6.15443C19 6.07743 18.9679 6.00693 18.9038 5.94293C18.8398 5.87876 18.7692 5.84668 18.6923 5.84668H15V4.34668H18.6923C19.1974 4.34668 19.625 4.52168 19.975 4.87168C20.325 5.22168 20.5 5.64926 20.5 6.15443V9.84668H19Z" fill="white"/>
</g>
</svg>
