<svg width="24" height="25" viewBox="0 0 24 25" fill="none" xmlns="http://www.w3.org/2000/svg">
<path fill-rule="evenodd" clip-rule="evenodd" d="M11.1514 6.31514C11.4417 6.10785 11.8287 6.09752 12.1296 6.28902L19.644 11.0709C20.3826 11.5409 20.0497 12.6841 19.1743 12.6841H19.134V18.6662C19.134 19.1495 18.7422 19.5412 18.259 19.5412H16.5184C15.974 19.5412 15.5973 19.0676 15.6303 18.5811C15.6616 18.1194 15.6458 17.1996 15.1972 16.4163C14.7826 15.6922 13.9331 14.9698 12.0328 14.9698C10.1324 14.9698 9.28299 15.6922 8.86832 16.4163C8.4198 17.1996 8.40392 18.1194 8.43524 18.5811C8.46825 19.0676 8.09155 19.5412 7.54719 19.5412H5.80659C5.32334 19.5412 4.93159 19.1495 4.93159 18.6662V12.6841H4.82587C3.97037 12.6841 3.62324 11.5829 4.32409 11.0923L5.31562 10.3982V7.73768C5.31562 7.25443 5.70737 6.86268 6.19062 6.86268H7.97325C8.4565 6.86268 8.84825 7.25443 8.84825 7.73768V7.95977L11.1514 6.31514ZM7.59825 8.84294V8.11268H6.56562V9.54393L7.59825 8.84294ZM6.29536 11.2382L5.79897 11.5857C6.02994 11.7432 6.18159 12.0084 6.18159 12.3091V18.2912H7.17511C7.17347 17.6643 7.27026 16.6916 7.78358 15.7952C8.4495 14.6323 9.74483 13.7198 12.0328 13.7198C14.3207 13.7198 15.6161 14.6323 16.282 15.7952C16.7953 16.6916 16.8921 17.6643 16.8904 18.2912H17.884V12.3091C17.884 12.0377 18.0076 11.7951 18.2016 11.6346L11.6719 7.4794L8.58043 9.687L6.29536 11.2382Z" fill="white"/>
</svg>
