<svg width="534" height="279" viewBox="0 0 534 279" fill="none" xmlns="http://www.w3.org/2000/svg">
<g filter="url(#filter0_d_320_2395)">
<path d="M131.862 185.853C131.523 186.079 131.062 186.333 130.479 186.615C129.896 186.897 129.21 187.132 128.42 187.32C127.648 187.508 126.802 187.602 125.88 187.602C124.3 187.584 122.87 187.301 121.591 186.756C120.331 186.21 119.259 185.467 118.375 184.527C117.491 183.586 116.804 182.505 116.315 181.282C115.845 180.041 115.61 178.724 115.61 177.332C115.61 175.808 115.854 174.407 116.343 173.128C116.851 171.83 117.556 170.711 118.459 169.77C119.362 168.811 120.425 168.068 121.648 167.541C122.889 167.014 124.244 166.751 125.711 166.751C126.934 166.751 128.043 166.92 129.04 167.259C130.037 167.579 130.893 167.964 131.608 168.416L130.508 170.955C129.943 170.579 129.257 170.221 128.448 169.883C127.658 169.544 126.774 169.375 125.795 169.375C124.799 169.375 123.858 169.572 122.974 169.968C122.09 170.363 121.309 170.917 120.632 171.632C119.955 172.347 119.419 173.184 119.024 174.143C118.647 175.084 118.459 176.1 118.459 177.191C118.459 178.301 118.629 179.335 118.967 180.295C119.325 181.235 119.823 182.053 120.463 182.749C121.121 183.445 121.911 183.991 122.833 184.386C123.755 184.781 124.789 184.978 125.937 184.978C126.971 184.978 127.893 184.818 128.702 184.499C129.511 184.179 130.178 183.822 130.705 183.426L131.862 185.853ZM133.508 177.191C133.508 175.78 133.771 174.454 134.298 173.212C134.843 171.952 135.596 170.842 136.555 169.883C137.515 168.905 138.615 168.143 139.856 167.597C141.117 167.033 142.471 166.751 143.92 166.751C145.349 166.751 146.685 167.033 147.926 167.597C149.187 168.143 150.296 168.905 151.256 169.883C152.234 170.842 152.996 171.952 153.541 173.212C154.087 174.454 154.359 175.78 154.359 177.191C154.359 178.639 154.087 179.994 153.541 181.254C152.996 182.514 152.234 183.624 151.256 184.583C150.296 185.524 149.187 186.267 147.926 186.812C146.685 187.339 145.349 187.602 143.92 187.602C142.471 187.602 141.117 187.339 139.856 186.812C138.615 186.286 137.515 185.552 136.555 184.612C135.596 183.671 134.843 182.571 134.298 181.31C133.771 180.05 133.508 178.677 133.508 177.191ZM136.329 177.219C136.329 178.291 136.527 179.298 136.922 180.238C137.317 181.16 137.863 181.978 138.559 182.693C139.255 183.408 140.063 183.972 140.985 184.386C141.907 184.781 142.904 184.978 143.976 184.978C145.029 184.978 146.017 184.781 146.939 184.386C147.86 183.972 148.66 183.408 149.337 182.693C150.014 181.978 150.55 181.16 150.945 180.238C151.34 179.298 151.538 178.282 151.538 177.191C151.538 176.119 151.34 175.112 150.945 174.172C150.55 173.212 150.005 172.375 149.309 171.66C148.613 170.946 147.804 170.391 146.882 169.996C145.961 169.582 144.973 169.375 143.92 169.375C142.847 169.375 141.85 169.582 140.929 169.996C140.007 170.41 139.198 170.974 138.502 171.689C137.806 172.403 137.27 173.241 136.894 174.2C136.518 175.14 136.329 176.147 136.329 177.219ZM159.732 180.153C159.732 181.075 159.949 181.903 160.381 182.636C160.833 183.351 161.425 183.916 162.159 184.329C162.893 184.743 163.72 184.95 164.642 184.95C165.601 184.95 166.457 184.743 167.21 184.329C167.962 183.916 168.555 183.351 168.987 182.636C169.42 181.903 169.636 181.075 169.636 180.153V166.977H172.317V180.238C172.317 181.724 171.969 183.022 171.273 184.132C170.595 185.242 169.674 186.098 168.508 186.7C167.36 187.301 166.072 187.602 164.642 187.602C163.212 187.602 161.924 187.301 160.776 186.7C159.629 186.098 158.717 185.242 158.039 184.132C157.362 183.022 157.024 181.724 157.024 180.238V166.977H159.732V180.153ZM181.64 166.977C182.675 166.977 183.625 167.118 184.49 167.4C185.374 167.663 186.136 168.068 186.776 168.613C187.434 169.14 187.942 169.798 188.299 170.588C188.676 171.359 188.864 172.262 188.864 173.297C188.864 174.106 188.741 174.896 188.497 175.667C188.271 176.438 187.886 177.144 187.34 177.783C186.795 178.404 186.08 178.912 185.196 179.307C184.33 179.683 183.258 179.871 181.979 179.871H178.96V187.377H176.223V166.977H181.64ZM181.923 177.247C182.731 177.247 183.399 177.125 183.926 176.88C184.471 176.636 184.895 176.325 185.196 175.949C185.497 175.554 185.713 175.131 185.845 174.68C185.976 174.228 186.042 173.805 186.042 173.41C186.042 172.996 185.967 172.573 185.816 172.14C185.685 171.689 185.459 171.275 185.139 170.899C184.838 170.522 184.434 170.212 183.926 169.968C183.437 169.723 182.835 169.601 182.12 169.601H178.96V177.247H181.923ZM185.28 178.799L190.613 187.377H187.453L182.035 178.884L185.28 178.799ZM203.682 170.616C202.986 170.259 202.224 169.949 201.397 169.685C200.569 169.422 199.76 169.29 198.97 169.29C197.879 169.29 197.004 169.544 196.346 170.052C195.706 170.56 195.387 171.237 195.387 172.084C195.387 172.723 195.594 173.269 196.007 173.72C196.421 174.153 196.967 174.529 197.644 174.849C198.321 175.169 199.027 175.47 199.76 175.752C200.4 175.996 201.03 176.269 201.651 176.57C202.271 176.871 202.826 177.247 203.315 177.699C203.823 178.15 204.218 178.705 204.5 179.363C204.801 180.022 204.952 180.84 204.952 181.818C204.952 182.89 204.679 183.869 204.134 184.753C203.607 185.637 202.845 186.333 201.848 186.841C200.851 187.348 199.666 187.602 198.293 187.602C197.39 187.602 196.525 187.499 195.697 187.292C194.888 187.085 194.136 186.822 193.44 186.502C192.744 186.163 192.123 185.815 191.578 185.458L192.791 183.314C193.242 183.633 193.76 183.944 194.343 184.245C194.926 184.527 195.537 184.762 196.177 184.95C196.816 185.119 197.437 185.204 198.039 185.204C198.679 185.204 199.309 185.091 199.929 184.865C200.569 184.621 201.096 184.254 201.51 183.765C201.923 183.276 202.13 182.627 202.13 181.818C202.13 181.122 201.942 180.548 201.566 180.097C201.209 179.627 200.729 179.232 200.127 178.912C199.525 178.573 198.885 178.272 198.208 178.009C197.569 177.764 196.92 177.501 196.261 177.219C195.603 176.918 194.992 176.561 194.427 176.147C193.863 175.714 193.412 175.187 193.073 174.567C192.734 173.946 192.565 173.194 192.565 172.309C192.565 171.237 192.819 170.306 193.327 169.516C193.854 168.707 194.568 168.077 195.471 167.626C196.374 167.155 197.409 166.901 198.575 166.864C199.892 166.864 201.049 167.024 202.046 167.343C203.061 167.663 203.955 168.058 204.726 168.528L203.682 170.616ZM207.859 166.977H221.12V169.601H210.596V175.808H219.992V178.432H210.596V184.753H221.515V187.377H207.859V166.977ZM235.125 170.616C234.429 170.259 233.667 169.949 232.84 169.685C232.012 169.422 231.203 169.29 230.413 169.29C229.322 169.29 228.447 169.544 227.789 170.052C227.15 170.56 226.83 171.237 226.83 172.084C226.83 172.723 227.037 173.269 227.45 173.72C227.864 174.153 228.41 174.529 229.087 174.849C229.764 175.169 230.47 175.47 231.203 175.752C231.843 175.996 232.473 176.269 233.094 176.57C233.714 176.871 234.269 177.247 234.758 177.699C235.266 178.15 235.661 178.705 235.943 179.363C236.244 180.022 236.395 180.84 236.395 181.818C236.395 182.89 236.122 183.869 235.577 184.753C235.05 185.637 234.288 186.333 233.291 186.841C232.294 187.348 231.109 187.602 229.736 187.602C228.833 187.602 227.968 187.499 227.14 187.292C226.331 187.085 225.579 186.822 224.883 186.502C224.187 186.163 223.566 185.815 223.021 185.458L224.234 183.314C224.685 183.633 225.203 183.944 225.786 184.245C226.369 184.527 226.98 184.762 227.62 184.95C228.259 185.119 228.88 185.204 229.482 185.204C230.122 185.204 230.752 185.091 231.372 184.865C232.012 184.621 232.539 184.254 232.953 183.765C233.366 183.276 233.573 182.627 233.573 181.818C233.573 181.122 233.385 180.548 233.009 180.097C232.652 179.627 232.172 179.232 231.57 178.912C230.968 178.573 230.329 178.272 229.651 178.009C229.012 177.764 228.363 177.501 227.704 177.219C227.046 176.918 226.435 176.561 225.87 176.147C225.306 175.714 224.855 175.187 224.516 174.567C224.177 173.946 224.008 173.194 224.008 172.309C224.008 171.237 224.262 170.306 224.77 169.516C225.297 168.707 226.011 168.077 226.914 167.626C227.817 167.155 228.852 166.901 230.018 166.864C231.335 166.864 232.492 167.024 233.489 167.343C234.504 167.663 235.398 168.058 236.169 168.528L235.125 170.616ZM246.537 166.977H258.641V169.601H249.274V176.119H257.485V178.714H249.274V187.377H246.537V166.977ZM259.776 177.191C259.776 175.78 260.04 174.454 260.566 173.212C261.112 171.952 261.864 170.842 262.824 169.883C263.783 168.905 264.883 168.143 266.125 167.597C267.385 167.033 268.739 166.751 270.188 166.751C271.617 166.751 272.953 167.033 274.195 167.597C275.455 168.143 276.565 168.905 277.524 169.883C278.502 170.842 279.264 171.952 279.809 173.212C280.355 174.454 280.628 175.78 280.628 177.191C280.628 178.639 280.355 179.994 279.809 181.254C279.264 182.514 278.502 183.624 277.524 184.583C276.565 185.524 275.455 186.267 274.195 186.812C272.953 187.339 271.617 187.602 270.188 187.602C268.739 187.602 267.385 187.339 266.125 186.812C264.883 186.286 263.783 185.552 262.824 184.612C261.864 183.671 261.112 182.571 260.566 181.31C260.04 180.05 259.776 178.677 259.776 177.191ZM262.598 177.219C262.598 178.291 262.795 179.298 263.19 180.238C263.585 181.16 264.131 181.978 264.827 182.693C265.523 183.408 266.332 183.972 267.253 184.386C268.175 184.781 269.172 184.978 270.244 184.978C271.298 184.978 272.285 184.781 273.207 184.386C274.129 183.972 274.928 183.408 275.605 182.693C276.282 181.978 276.819 181.16 277.214 180.238C277.609 179.298 277.806 178.282 277.806 177.191C277.806 176.119 277.609 175.112 277.214 174.172C276.819 173.212 276.273 172.375 275.577 171.66C274.881 170.946 274.072 170.391 273.151 169.996C272.229 169.582 271.241 169.375 270.188 169.375C269.116 169.375 268.119 169.582 267.197 169.996C266.275 170.41 265.466 170.974 264.77 171.689C264.074 172.403 263.538 173.241 263.162 174.2C262.786 175.14 262.598 176.147 262.598 177.219ZM288.963 166.977C289.998 166.977 290.948 167.118 291.813 167.4C292.697 167.663 293.459 168.068 294.099 168.613C294.757 169.14 295.265 169.798 295.622 170.588C295.998 171.359 296.187 172.262 296.187 173.297C296.187 174.106 296.064 174.896 295.82 175.667C295.594 176.438 295.208 177.144 294.663 177.783C294.117 178.404 293.403 178.912 292.519 179.307C291.653 179.683 290.581 179.871 289.302 179.871H286.283V187.377H283.546V166.977H288.963ZM289.245 177.247C290.054 177.247 290.722 177.125 291.249 176.88C291.794 176.636 292.218 176.325 292.519 175.949C292.819 175.554 293.036 175.131 293.167 174.68C293.299 174.228 293.365 173.805 293.365 173.41C293.365 172.996 293.29 172.573 293.139 172.14C293.008 171.689 292.782 171.275 292.462 170.899C292.161 170.522 291.757 170.212 291.249 169.968C290.76 169.723 290.158 169.601 289.443 169.601H286.283V177.247H289.245ZM292.603 178.799L297.936 187.377H294.776L289.358 178.884L292.603 178.799ZM307.687 187.377V166.977H313.245C315.258 166.977 316.97 167.287 318.381 167.908C319.81 168.528 320.958 169.347 321.823 170.363C322.688 171.378 323.319 172.507 323.714 173.748C324.127 174.971 324.334 176.194 324.334 177.417C324.334 178.959 324.062 180.342 323.516 181.564C322.989 182.787 322.256 183.831 321.315 184.696C320.375 185.561 319.293 186.229 318.07 186.7C316.867 187.151 315.587 187.377 314.233 187.377H307.687ZM310.424 184.753H313.697C314.826 184.753 315.86 184.583 316.801 184.245C317.76 183.906 318.588 183.417 319.284 182.778C319.998 182.138 320.553 181.357 320.948 180.436C321.343 179.495 321.541 178.432 321.541 177.247C321.541 175.987 321.334 174.886 320.92 173.946C320.506 172.987 319.942 172.187 319.227 171.548C318.512 170.908 317.704 170.428 316.801 170.109C315.898 169.77 314.948 169.601 313.951 169.601H310.424V184.753ZM327.239 166.977H340.5V169.601H329.976V175.808H339.371V178.432H329.976V184.753H340.895V187.377H327.239V166.977ZM345.419 166.977L352.135 183.85L350.583 183.539L356.96 166.977H360.148L351.147 188.308L342.174 166.977H345.419ZM373.092 170.616C372.396 170.259 371.634 169.949 370.807 169.685C369.979 169.422 369.17 169.29 368.38 169.29C367.289 169.29 366.414 169.544 365.756 170.052C365.116 170.56 364.797 171.237 364.797 172.084C364.797 172.723 365.003 173.269 365.417 173.72C365.831 174.153 366.377 174.529 367.054 174.849C367.731 175.169 368.436 175.47 369.17 175.752C369.81 175.996 370.44 176.269 371.061 176.57C371.681 176.871 372.236 177.247 372.725 177.699C373.233 178.15 373.628 178.705 373.91 179.363C374.211 180.022 374.362 180.84 374.362 181.818C374.362 182.89 374.089 183.869 373.544 184.753C373.017 185.637 372.255 186.333 371.258 186.841C370.261 187.348 369.076 187.602 367.703 187.602C366.8 187.602 365.935 187.499 365.107 187.292C364.298 187.085 363.546 186.822 362.85 186.502C362.154 186.163 361.533 185.815 360.987 185.458L362.201 183.314C362.652 183.633 363.169 183.944 363.753 184.245C364.336 184.527 364.947 184.762 365.587 184.95C366.226 185.119 366.847 185.204 367.449 185.204C368.088 185.204 368.719 185.091 369.339 184.865C369.979 184.621 370.506 184.254 370.919 183.765C371.333 183.276 371.54 182.627 371.54 181.818C371.54 181.122 371.352 180.548 370.976 180.097C370.618 179.627 370.139 179.232 369.537 178.912C368.935 178.573 368.295 178.272 367.618 178.009C366.979 177.764 366.33 177.501 365.671 177.219C365.013 176.918 364.402 176.561 363.837 176.147C363.273 175.714 362.821 175.187 362.483 174.567C362.144 173.946 361.975 173.194 361.975 172.309C361.975 171.237 362.229 170.306 362.737 169.516C363.264 168.707 363.978 168.077 364.881 167.626C365.784 167.155 366.819 166.901 367.985 166.864C369.302 166.864 370.459 167.024 371.456 167.343C372.471 167.663 373.365 168.058 374.136 168.528L373.092 170.616Z" fill="#464646"/>
<path d="M276.672 103.214C280.169 103.214 283.138 103.804 285.579 104.983C288.019 106.163 289.89 107.83 291.191 109.986C292.493 112.142 293.144 114.745 293.144 117.795C293.144 119.584 292.879 121.374 292.35 123.164C291.822 124.912 290.947 126.519 289.727 127.983C288.548 129.407 286.982 130.566 285.03 131.461C283.077 132.315 280.698 132.742 277.892 132.742H271.486V147.811H263.86V103.214H276.672ZM277.831 125.36C279.336 125.36 280.576 125.116 281.552 124.628C282.569 124.099 283.362 123.448 283.931 122.676C284.501 121.903 284.908 121.089 285.152 120.235C285.436 119.381 285.579 118.629 285.579 117.978C285.579 117.327 285.457 116.595 285.213 115.782C285.009 114.928 284.643 114.114 284.114 113.341C283.586 112.528 282.813 111.877 281.796 111.389C280.82 110.86 279.559 110.596 278.014 110.596H271.486V125.36H277.831ZM307.489 148.482C305.049 148.482 302.832 147.994 300.839 147.017C298.887 146.001 297.321 144.475 296.141 142.442C295.003 140.408 294.433 137.866 294.433 134.816C294.433 131.888 295.023 129.366 296.202 127.251C297.423 125.095 299.009 123.448 300.961 122.309C302.954 121.13 305.11 120.54 307.428 120.54C309.949 120.54 311.942 121.028 313.407 122.004C314.871 122.94 316.05 124.018 316.945 125.238L316.579 126.275L317.25 121.76H324.083V147.811H316.701V141.71L317.372 143.357C317.25 143.52 316.945 143.886 316.457 144.455C316.01 144.984 315.359 145.574 314.505 146.224C313.691 146.834 312.695 147.363 311.515 147.811C310.377 148.258 309.034 148.482 307.489 148.482ZM309.563 142.503C310.743 142.503 311.8 142.3 312.735 141.893C313.671 141.486 314.464 140.917 315.115 140.185C315.806 139.412 316.335 138.497 316.701 137.439V131.583C316.376 130.525 315.847 129.63 315.115 128.898C314.423 128.166 313.569 127.597 312.552 127.19C311.576 126.743 310.478 126.519 309.258 126.519C307.957 126.519 306.736 126.865 305.598 127.556C304.459 128.207 303.544 129.142 302.852 130.362C302.202 131.542 301.876 132.904 301.876 134.45C301.876 135.955 302.222 137.317 302.913 138.537C303.605 139.758 304.54 140.734 305.72 141.466C306.899 142.157 308.18 142.503 309.563 142.503ZM332.048 110.291H339.43V121.699H346.08V127.434H339.43V147.811H332.048V127.434H327.717V121.699H332.048V110.291ZM349.123 147.811V100.042H356.261V127.312L356.2 126.275C357.095 124.607 358.396 123.245 360.104 122.187C361.853 121.13 363.968 120.601 366.449 120.601C368.889 120.601 370.923 121.333 372.55 122.798C374.177 124.221 375.01 126.092 375.051 128.41V147.811H367.73V131.095C367.69 129.834 367.324 128.817 366.632 128.044C365.981 127.271 364.924 126.865 363.46 126.824C362.077 126.824 360.857 127.251 359.799 128.105C358.742 128.959 357.908 130.118 357.298 131.583C356.729 133.006 356.444 134.653 356.444 136.524V147.811H349.123Z" fill="url(#paint0_linear_320_2395)"/>
<path d="M276.672 103.214C280.169 103.214 283.138 103.804 285.579 104.983C288.019 106.163 289.89 107.83 291.191 109.986C292.493 112.142 293.144 114.745 293.144 117.795C293.144 119.584 292.879 121.374 292.35 123.164C291.822 124.912 290.947 126.519 289.727 127.983C288.548 129.407 286.982 130.566 285.03 131.461C283.077 132.315 280.698 132.742 277.892 132.742H271.486V147.811H263.86V103.214H276.672ZM277.831 125.36C279.336 125.36 280.576 125.116 281.552 124.628C282.569 124.099 283.362 123.448 283.931 122.676C284.501 121.903 284.908 121.089 285.152 120.235C285.436 119.381 285.579 118.629 285.579 117.978C285.579 117.327 285.457 116.595 285.213 115.782C285.009 114.928 284.643 114.114 284.114 113.341C283.586 112.528 282.813 111.877 281.796 111.389C280.82 110.86 279.559 110.596 278.014 110.596H271.486V125.36H277.831ZM307.489 148.482C305.049 148.482 302.832 147.994 300.839 147.017C298.887 146.001 297.321 144.475 296.141 142.442C295.003 140.408 294.433 137.866 294.433 134.816C294.433 131.888 295.023 129.366 296.202 127.251C297.423 125.095 299.009 123.448 300.961 122.309C302.954 121.13 305.11 120.54 307.428 120.54C309.949 120.54 311.942 121.028 313.407 122.004C314.871 122.94 316.05 124.018 316.945 125.238L316.579 126.275L317.25 121.76H324.083V147.811H316.701V141.71L317.372 143.357C317.25 143.52 316.945 143.886 316.457 144.455C316.01 144.984 315.359 145.574 314.505 146.224C313.691 146.834 312.695 147.363 311.515 147.811C310.377 148.258 309.034 148.482 307.489 148.482ZM309.563 142.503C310.743 142.503 311.8 142.3 312.735 141.893C313.671 141.486 314.464 140.917 315.115 140.185C315.806 139.412 316.335 138.497 316.701 137.439V131.583C316.376 130.525 315.847 129.63 315.115 128.898C314.423 128.166 313.569 127.597 312.552 127.19C311.576 126.743 310.478 126.519 309.258 126.519C307.957 126.519 306.736 126.865 305.598 127.556C304.459 128.207 303.544 129.142 302.852 130.362C302.202 131.542 301.876 132.904 301.876 134.45C301.876 135.955 302.222 137.317 302.913 138.537C303.605 139.758 304.54 140.734 305.72 141.466C306.899 142.157 308.18 142.503 309.563 142.503ZM332.048 110.291H339.43V121.699H346.08V127.434H339.43V147.811H332.048V127.434H327.717V121.699H332.048V110.291ZM349.123 147.811V100.042H356.261V127.312L356.2 126.275C357.095 124.607 358.396 123.245 360.104 122.187C361.853 121.13 363.968 120.601 366.449 120.601C368.889 120.601 370.923 121.333 372.55 122.798C374.177 124.221 375.01 126.092 375.051 128.41V147.811H367.73V131.095C367.69 129.834 367.324 128.817 366.632 128.044C365.981 127.271 364.924 126.865 363.46 126.824C362.077 126.824 360.857 127.251 359.799 128.105C358.742 128.959 357.908 130.118 357.298 131.583C356.729 133.006 356.444 134.653 356.444 136.524V147.811H349.123Z" fill="url(#paint1_linear_320_2395)" fill-opacity="0.2"/>
<path d="M276.672 103.214C280.169 103.214 283.138 103.804 285.579 104.983C288.019 106.163 289.89 107.83 291.191 109.986C292.493 112.142 293.144 114.745 293.144 117.795C293.144 119.584 292.879 121.374 292.35 123.164C291.822 124.912 290.947 126.519 289.727 127.983C288.548 129.407 286.982 130.566 285.03 131.461C283.077 132.315 280.698 132.742 277.892 132.742H271.486V147.811H263.86V103.214H276.672ZM277.831 125.36C279.336 125.36 280.576 125.116 281.552 124.628C282.569 124.099 283.362 123.448 283.931 122.676C284.501 121.903 284.908 121.089 285.152 120.235C285.436 119.381 285.579 118.629 285.579 117.978C285.579 117.327 285.457 116.595 285.213 115.782C285.009 114.928 284.643 114.114 284.114 113.341C283.586 112.528 282.813 111.877 281.796 111.389C280.82 110.86 279.559 110.596 278.014 110.596H271.486V125.36H277.831ZM307.489 148.482C305.049 148.482 302.832 147.994 300.839 147.017C298.887 146.001 297.321 144.475 296.141 142.442C295.003 140.408 294.433 137.866 294.433 134.816C294.433 131.888 295.023 129.366 296.202 127.251C297.423 125.095 299.009 123.448 300.961 122.309C302.954 121.13 305.11 120.54 307.428 120.54C309.949 120.54 311.942 121.028 313.407 122.004C314.871 122.94 316.05 124.018 316.945 125.238L316.579 126.275L317.25 121.76H324.083V147.811H316.701V141.71L317.372 143.357C317.25 143.52 316.945 143.886 316.457 144.455C316.01 144.984 315.359 145.574 314.505 146.224C313.691 146.834 312.695 147.363 311.515 147.811C310.377 148.258 309.034 148.482 307.489 148.482ZM309.563 142.503C310.743 142.503 311.8 142.3 312.735 141.893C313.671 141.486 314.464 140.917 315.115 140.185C315.806 139.412 316.335 138.497 316.701 137.439V131.583C316.376 130.525 315.847 129.63 315.115 128.898C314.423 128.166 313.569 127.597 312.552 127.19C311.576 126.743 310.478 126.519 309.258 126.519C307.957 126.519 306.736 126.865 305.598 127.556C304.459 128.207 303.544 129.142 302.852 130.362C302.202 131.542 301.876 132.904 301.876 134.45C301.876 135.955 302.222 137.317 302.913 138.537C303.605 139.758 304.54 140.734 305.72 141.466C306.899 142.157 308.18 142.503 309.563 142.503ZM332.048 110.291H339.43V121.699H346.08V127.434H339.43V147.811H332.048V127.434H327.717V121.699H332.048V110.291ZM349.123 147.811V100.042H356.261V127.312L356.2 126.275C357.095 124.607 358.396 123.245 360.104 122.187C361.853 121.13 363.968 120.601 366.449 120.601C368.889 120.601 370.923 121.333 372.55 122.798C374.177 124.221 375.01 126.092 375.051 128.41V147.811H367.73V131.095C367.69 129.834 367.324 128.817 366.632 128.044C365.981 127.271 364.924 126.865 363.46 126.824C362.077 126.824 360.857 127.251 359.799 128.105C358.742 128.959 357.908 130.118 357.298 131.583C356.729 133.006 356.444 134.653 356.444 136.524V147.811H349.123Z" fill="url(#paint2_linear_320_2395)" fill-opacity="0.1"/>
<path d="M122.71 103.214C127.306 103.214 130.926 104.15 133.569 106.021C136.253 107.891 137.596 110.698 137.596 114.44C137.596 117.043 136.986 119.239 135.765 121.028C134.545 122.818 132.857 124.18 130.702 125.116C128.546 126.051 126.045 126.56 123.198 126.641L122.039 122.554C125.415 122.594 128.424 123.123 131.068 124.14C133.752 125.116 135.867 126.519 137.413 128.349C138.958 130.179 139.731 132.376 139.731 134.938C139.731 137.256 139.304 139.249 138.45 140.917C137.636 142.544 136.498 143.865 135.033 144.882C133.61 145.899 131.983 146.651 130.153 147.139C128.323 147.587 126.431 147.811 124.479 147.811H110.325V103.214H122.71ZM123.869 122.004C125.903 122.004 127.387 121.415 128.323 120.235C129.258 119.056 129.726 117.673 129.726 116.087C129.726 114.216 129.116 112.833 127.895 111.938C126.716 111.043 125.109 110.596 123.076 110.596H117.951V122.004H123.869ZM124.113 140.734C125.577 140.734 126.879 140.53 128.017 140.124C129.197 139.717 130.132 139.087 130.824 138.232C131.515 137.338 131.861 136.239 131.861 134.938C131.861 133.474 131.454 132.355 130.641 131.583C129.827 130.769 128.79 130.2 127.529 129.874C126.269 129.508 124.967 129.325 123.625 129.325H117.951V140.734H124.113ZM150.576 121.76L151.247 129.081L151.003 127.983C151.735 126.438 152.752 125.116 154.053 124.018C155.355 122.92 156.677 122.065 158.019 121.455C159.361 120.845 160.439 120.54 161.252 120.54L160.886 127.861C158.934 127.658 157.226 128.004 155.762 128.898C154.338 129.793 153.22 130.973 152.406 132.437C151.633 133.86 151.247 135.345 151.247 136.89V147.811H143.987V121.76H150.576ZM164.515 121.76H171.836V147.811H164.515V121.76ZM164.21 112.426C164.21 111.328 164.637 110.413 165.491 109.681C166.386 108.949 167.342 108.583 168.359 108.583C169.375 108.583 170.29 108.949 171.104 109.681C171.958 110.413 172.385 111.328 172.385 112.426C172.385 113.565 171.958 114.501 171.104 115.233C170.29 115.924 169.375 116.27 168.359 116.27C167.342 116.27 166.386 115.924 165.491 115.233C164.637 114.501 164.21 113.565 164.21 112.426ZM190.593 160.866C188.397 160.866 186.526 160.602 184.981 160.073C183.435 159.585 182.073 158.934 180.893 158.121C179.754 157.307 178.697 156.494 177.721 155.68L182.052 150.678C183.15 151.695 184.35 152.569 185.652 153.301C186.953 154.074 188.56 154.46 190.471 154.46C192.058 154.46 193.461 154.176 194.681 153.606C195.901 153.078 196.857 152.325 197.548 151.349C198.24 150.373 198.585 149.173 198.585 147.75V141.527L199.012 142.869C198.321 144.414 197.08 145.736 195.291 146.834C193.501 147.933 191.244 148.482 188.519 148.482C186.119 148.482 183.903 147.872 181.869 146.651C179.876 145.431 178.29 143.784 177.111 141.71C175.931 139.636 175.342 137.277 175.342 134.633C175.342 131.908 175.972 129.488 177.233 127.373C178.494 125.258 180.141 123.591 182.174 122.37C184.249 121.15 186.445 120.54 188.763 120.54C191.041 120.54 193.054 120.927 194.803 121.699C196.552 122.472 197.874 123.428 198.768 124.567L198.402 125.482L199.195 121.76H205.967V147.872C205.967 150.353 205.296 152.569 203.954 154.521C202.612 156.474 200.782 158.019 198.463 159.158C196.145 160.297 193.522 160.866 190.593 160.866ZM182.723 134.45C182.723 135.955 183.069 137.317 183.761 138.537C184.493 139.758 185.448 140.734 186.628 141.466C187.848 142.157 189.19 142.503 190.654 142.503C191.956 142.503 193.115 142.3 194.132 141.893C195.189 141.486 196.084 140.917 196.816 140.185C197.589 139.412 198.179 138.517 198.585 137.5V131.583C198.26 130.525 197.691 129.63 196.877 128.898C196.104 128.166 195.189 127.597 194.132 127.19C193.115 126.743 191.956 126.519 190.654 126.519C189.19 126.519 187.848 126.865 186.628 127.556C185.448 128.248 184.493 129.183 183.761 130.362C183.069 131.542 182.723 132.904 182.723 134.45ZM211.588 147.811V100.042H218.726V127.312L218.665 126.275C219.56 124.607 220.862 123.245 222.57 122.187C224.319 121.13 226.434 120.601 228.915 120.601C231.355 120.601 233.388 121.333 235.015 122.798C236.642 124.221 237.476 126.092 237.517 128.41V147.811H230.196V131.095C230.155 129.834 229.789 128.817 229.098 128.044C228.447 127.271 227.389 126.865 225.925 126.824C224.542 126.824 223.322 127.251 222.265 128.105C221.207 128.959 220.373 130.118 219.763 131.583C219.194 133.006 218.909 134.653 218.909 136.524V147.811H211.588ZM245.579 110.291H252.96V121.699H259.61V127.434H252.96V147.811H245.579V127.434H241.247V121.699H245.579V110.291Z" fill="url(#paint3_linear_320_2395)"/>
<path d="M122.71 103.214C127.306 103.214 130.926 104.15 133.569 106.021C136.253 107.891 137.596 110.698 137.596 114.44C137.596 117.043 136.986 119.239 135.765 121.028C134.545 122.818 132.857 124.18 130.702 125.116C128.546 126.051 126.045 126.56 123.198 126.641L122.039 122.554C125.415 122.594 128.424 123.123 131.068 124.14C133.752 125.116 135.867 126.519 137.413 128.349C138.958 130.179 139.731 132.376 139.731 134.938C139.731 137.256 139.304 139.249 138.45 140.917C137.636 142.544 136.498 143.865 135.033 144.882C133.61 145.899 131.983 146.651 130.153 147.139C128.323 147.587 126.431 147.811 124.479 147.811H110.325V103.214H122.71ZM123.869 122.004C125.903 122.004 127.387 121.415 128.323 120.235C129.258 119.056 129.726 117.673 129.726 116.087C129.726 114.216 129.116 112.833 127.895 111.938C126.716 111.043 125.109 110.596 123.076 110.596H117.951V122.004H123.869ZM124.113 140.734C125.577 140.734 126.879 140.53 128.017 140.124C129.197 139.717 130.132 139.087 130.824 138.232C131.515 137.338 131.861 136.239 131.861 134.938C131.861 133.474 131.454 132.355 130.641 131.583C129.827 130.769 128.79 130.2 127.529 129.874C126.269 129.508 124.967 129.325 123.625 129.325H117.951V140.734H124.113ZM150.576 121.76L151.247 129.081L151.003 127.983C151.735 126.438 152.752 125.116 154.053 124.018C155.355 122.92 156.677 122.065 158.019 121.455C159.361 120.845 160.439 120.54 161.252 120.54L160.886 127.861C158.934 127.658 157.226 128.004 155.762 128.898C154.338 129.793 153.22 130.973 152.406 132.437C151.633 133.86 151.247 135.345 151.247 136.89V147.811H143.987V121.76H150.576ZM164.515 121.76H171.836V147.811H164.515V121.76ZM164.21 112.426C164.21 111.328 164.637 110.413 165.491 109.681C166.386 108.949 167.342 108.583 168.359 108.583C169.375 108.583 170.29 108.949 171.104 109.681C171.958 110.413 172.385 111.328 172.385 112.426C172.385 113.565 171.958 114.501 171.104 115.233C170.29 115.924 169.375 116.27 168.359 116.27C167.342 116.27 166.386 115.924 165.491 115.233C164.637 114.501 164.21 113.565 164.21 112.426ZM190.593 160.866C188.397 160.866 186.526 160.602 184.981 160.073C183.435 159.585 182.073 158.934 180.893 158.121C179.754 157.307 178.697 156.494 177.721 155.68L182.052 150.678C183.15 151.695 184.35 152.569 185.652 153.301C186.953 154.074 188.56 154.46 190.471 154.46C192.058 154.46 193.461 154.176 194.681 153.606C195.901 153.078 196.857 152.325 197.548 151.349C198.24 150.373 198.585 149.173 198.585 147.75V141.527L199.012 142.869C198.321 144.414 197.08 145.736 195.291 146.834C193.501 147.933 191.244 148.482 188.519 148.482C186.119 148.482 183.903 147.872 181.869 146.651C179.876 145.431 178.29 143.784 177.111 141.71C175.931 139.636 175.342 137.277 175.342 134.633C175.342 131.908 175.972 129.488 177.233 127.373C178.494 125.258 180.141 123.591 182.174 122.37C184.249 121.15 186.445 120.54 188.763 120.54C191.041 120.54 193.054 120.927 194.803 121.699C196.552 122.472 197.874 123.428 198.768 124.567L198.402 125.482L199.195 121.76H205.967V147.872C205.967 150.353 205.296 152.569 203.954 154.521C202.612 156.474 200.782 158.019 198.463 159.158C196.145 160.297 193.522 160.866 190.593 160.866ZM182.723 134.45C182.723 135.955 183.069 137.317 183.761 138.537C184.493 139.758 185.448 140.734 186.628 141.466C187.848 142.157 189.19 142.503 190.654 142.503C191.956 142.503 193.115 142.3 194.132 141.893C195.189 141.486 196.084 140.917 196.816 140.185C197.589 139.412 198.179 138.517 198.585 137.5V131.583C198.26 130.525 197.691 129.63 196.877 128.898C196.104 128.166 195.189 127.597 194.132 127.19C193.115 126.743 191.956 126.519 190.654 126.519C189.19 126.519 187.848 126.865 186.628 127.556C185.448 128.248 184.493 129.183 183.761 130.362C183.069 131.542 182.723 132.904 182.723 134.45ZM211.588 147.811V100.042H218.726V127.312L218.665 126.275C219.56 124.607 220.862 123.245 222.57 122.187C224.319 121.13 226.434 120.601 228.915 120.601C231.355 120.601 233.388 121.333 235.015 122.798C236.642 124.221 237.476 126.092 237.517 128.41V147.811H230.196V131.095C230.155 129.834 229.789 128.817 229.098 128.044C228.447 127.271 227.389 126.865 225.925 126.824C224.542 126.824 223.322 127.251 222.265 128.105C221.207 128.959 220.373 130.118 219.763 131.583C219.194 133.006 218.909 134.653 218.909 136.524V147.811H211.588ZM245.579 110.291H252.96V121.699H259.61V127.434H252.96V147.811H245.579V127.434H241.247V121.699H245.579V110.291Z" fill="url(#paint4_radial_320_2395)"/>
<path d="M122.71 103.214C127.306 103.214 130.926 104.15 133.569 106.021C136.253 107.891 137.596 110.698 137.596 114.44C137.596 117.043 136.986 119.239 135.765 121.028C134.545 122.818 132.857 124.18 130.702 125.116C128.546 126.051 126.045 126.56 123.198 126.641L122.039 122.554C125.415 122.594 128.424 123.123 131.068 124.14C133.752 125.116 135.867 126.519 137.413 128.349C138.958 130.179 139.731 132.376 139.731 134.938C139.731 137.256 139.304 139.249 138.45 140.917C137.636 142.544 136.498 143.865 135.033 144.882C133.61 145.899 131.983 146.651 130.153 147.139C128.323 147.587 126.431 147.811 124.479 147.811H110.325V103.214H122.71ZM123.869 122.004C125.903 122.004 127.387 121.415 128.323 120.235C129.258 119.056 129.726 117.673 129.726 116.087C129.726 114.216 129.116 112.833 127.895 111.938C126.716 111.043 125.109 110.596 123.076 110.596H117.951V122.004H123.869ZM124.113 140.734C125.577 140.734 126.879 140.53 128.017 140.124C129.197 139.717 130.132 139.087 130.824 138.232C131.515 137.338 131.861 136.239 131.861 134.938C131.861 133.474 131.454 132.355 130.641 131.583C129.827 130.769 128.79 130.2 127.529 129.874C126.269 129.508 124.967 129.325 123.625 129.325H117.951V140.734H124.113ZM150.576 121.76L151.247 129.081L151.003 127.983C151.735 126.438 152.752 125.116 154.053 124.018C155.355 122.92 156.677 122.065 158.019 121.455C159.361 120.845 160.439 120.54 161.252 120.54L160.886 127.861C158.934 127.658 157.226 128.004 155.762 128.898C154.338 129.793 153.22 130.973 152.406 132.437C151.633 133.86 151.247 135.345 151.247 136.89V147.811H143.987V121.76H150.576ZM164.515 121.76H171.836V147.811H164.515V121.76ZM164.21 112.426C164.21 111.328 164.637 110.413 165.491 109.681C166.386 108.949 167.342 108.583 168.359 108.583C169.375 108.583 170.29 108.949 171.104 109.681C171.958 110.413 172.385 111.328 172.385 112.426C172.385 113.565 171.958 114.501 171.104 115.233C170.29 115.924 169.375 116.27 168.359 116.27C167.342 116.27 166.386 115.924 165.491 115.233C164.637 114.501 164.21 113.565 164.21 112.426ZM190.593 160.866C188.397 160.866 186.526 160.602 184.981 160.073C183.435 159.585 182.073 158.934 180.893 158.121C179.754 157.307 178.697 156.494 177.721 155.68L182.052 150.678C183.15 151.695 184.35 152.569 185.652 153.301C186.953 154.074 188.56 154.46 190.471 154.46C192.058 154.46 193.461 154.176 194.681 153.606C195.901 153.078 196.857 152.325 197.548 151.349C198.24 150.373 198.585 149.173 198.585 147.75V141.527L199.012 142.869C198.321 144.414 197.08 145.736 195.291 146.834C193.501 147.933 191.244 148.482 188.519 148.482C186.119 148.482 183.903 147.872 181.869 146.651C179.876 145.431 178.29 143.784 177.111 141.71C175.931 139.636 175.342 137.277 175.342 134.633C175.342 131.908 175.972 129.488 177.233 127.373C178.494 125.258 180.141 123.591 182.174 122.37C184.249 121.15 186.445 120.54 188.763 120.54C191.041 120.54 193.054 120.927 194.803 121.699C196.552 122.472 197.874 123.428 198.768 124.567L198.402 125.482L199.195 121.76H205.967V147.872C205.967 150.353 205.296 152.569 203.954 154.521C202.612 156.474 200.782 158.019 198.463 159.158C196.145 160.297 193.522 160.866 190.593 160.866ZM182.723 134.45C182.723 135.955 183.069 137.317 183.761 138.537C184.493 139.758 185.448 140.734 186.628 141.466C187.848 142.157 189.19 142.503 190.654 142.503C191.956 142.503 193.115 142.3 194.132 141.893C195.189 141.486 196.084 140.917 196.816 140.185C197.589 139.412 198.179 138.517 198.585 137.5V131.583C198.26 130.525 197.691 129.63 196.877 128.898C196.104 128.166 195.189 127.597 194.132 127.19C193.115 126.743 191.956 126.519 190.654 126.519C189.19 126.519 187.848 126.865 186.628 127.556C185.448 128.248 184.493 129.183 183.761 130.362C183.069 131.542 182.723 132.904 182.723 134.45ZM211.588 147.811V100.042H218.726V127.312L218.665 126.275C219.56 124.607 220.862 123.245 222.57 122.187C224.319 121.13 226.434 120.601 228.915 120.601C231.355 120.601 233.388 121.333 235.015 122.798C236.642 124.221 237.476 126.092 237.517 128.41V147.811H230.196V131.095C230.155 129.834 229.789 128.817 229.098 128.044C228.447 127.271 227.389 126.865 225.925 126.824C224.542 126.824 223.322 127.251 222.265 128.105C221.207 128.959 220.373 130.118 219.763 131.583C219.194 133.006 218.909 134.653 218.909 136.524V147.811H211.588ZM245.579 110.291H252.96V121.699H259.61V127.434H252.96V147.811H245.579V127.434H241.247V121.699H245.579V110.291Z" fill="url(#paint5_linear_320_2395)" fill-opacity="0.08"/>
<path fill-rule="evenodd" clip-rule="evenodd" d="M388.986 150.998C387.582 150.998 386.444 152.136 386.444 153.54V160.657C386.444 162.061 387.582 163.199 388.986 163.199H396.104C397.508 163.199 398.646 162.061 398.646 160.657V153.54C398.646 152.136 397.508 150.998 396.104 150.998H388.986ZM395.087 154.556H390.003V159.64H395.087V154.556Z" fill="url(#paint6_linear_320_2395)"/>
<path fill-rule="evenodd" clip-rule="evenodd" d="M388.986 150.998C387.582 150.998 386.444 152.136 386.444 153.54V160.657C386.444 162.061 387.582 163.199 388.986 163.199H396.104C397.508 163.199 398.646 162.061 398.646 160.657V153.54C398.646 152.136 397.508 150.998 396.104 150.998H388.986ZM395.087 154.556H390.003V159.64H395.087V154.556Z" fill="url(#paint7_linear_320_2395)" fill-opacity="0.2"/>
<path fill-rule="evenodd" clip-rule="evenodd" d="M388.986 150.998C387.582 150.998 386.444 152.136 386.444 153.54V160.657C386.444 162.061 387.582 163.199 388.986 163.199H396.104C397.508 163.199 398.646 162.061 398.646 160.657V153.54C398.646 152.136 397.508 150.998 396.104 150.998H388.986ZM395.087 154.556H390.003V159.64H395.087V154.556Z" fill="url(#paint8_linear_320_2395)" fill-opacity="0.2"/>
<path fill-rule="evenodd" clip-rule="evenodd" d="M400.171 130.281C398.486 130.281 397.121 131.646 397.121 133.331V142.482C397.121 144.167 398.486 145.532 400.171 145.532H409.322C411.007 145.532 412.372 144.167 412.372 142.482V133.331C412.372 131.646 411.007 130.281 409.322 130.281H400.171ZM401.188 134.348H408.305V141.465H401.188V134.348Z" fill="url(#paint9_linear_320_2395)"/>
<path fill-rule="evenodd" clip-rule="evenodd" d="M400.171 130.281C398.486 130.281 397.121 131.646 397.121 133.331V142.482C397.121 144.167 398.486 145.532 400.171 145.532H409.322C411.007 145.532 412.372 144.167 412.372 142.482V133.331C412.372 131.646 411.007 130.281 409.322 130.281H400.171ZM401.188 134.348H408.305V141.465H401.188V134.348Z" fill="url(#paint10_linear_320_2395)" fill-opacity="0.1"/>
<path fill-rule="evenodd" clip-rule="evenodd" d="M400.171 130.281C398.486 130.281 397.121 131.646 397.121 133.331V142.482C397.121 144.167 398.486 145.532 400.171 145.532H409.322C411.007 145.532 412.372 144.167 412.372 142.482V133.331C412.372 131.646 411.007 130.281 409.322 130.281H400.171ZM401.188 134.348H408.305V141.465H401.188V134.348Z" fill="url(#paint11_linear_320_2395)" fill-opacity="0.05"/>
<path fill-rule="evenodd" clip-rule="evenodd" d="M409.83 103.336C407.584 103.336 405.763 105.157 405.763 107.403V119.604C405.763 121.851 407.584 123.672 409.83 123.672H422.032C424.278 123.672 426.099 121.851 426.099 119.604V107.403C426.099 105.157 424.278 103.336 422.032 103.336H409.83ZM410.339 107.911H421.523V119.096H410.339V107.911Z" fill="url(#paint12_linear_320_2395)"/>
<path fill-rule="evenodd" clip-rule="evenodd" d="M409.83 103.336C407.584 103.336 405.763 105.157 405.763 107.403V119.604C405.763 121.851 407.584 123.672 409.83 123.672H422.032C424.278 123.672 426.099 121.851 426.099 119.604V107.403C426.099 105.157 424.278 103.336 422.032 103.336H409.83ZM410.339 107.911H421.523V119.096H410.339V107.911Z" fill="url(#paint13_linear_320_2395)" fill-opacity="0.08"/>
<path d="M434.33 88.3669C433.697 88.8654 428.092 97.9367 427.999 98.3147C427.907 98.6927 427.579 99.395 428.548 99.8758C429.64 100.418 430.049 100.084 430.397 99.8975C430.745 99.7113 435.191 93.5797 437.187 90.4044C437.748 89.6484 437.573 88.84 436.571 88.1696C435.569 87.4992 434.963 87.8684 434.33 88.3669Z" fill="url(#paint14_linear_320_2395)"/>
<path d="M416.1 85.1689C415.868 85.9403 416.487 96.5856 416.628 96.9482C416.77 97.3109 416.905 98.0739 417.974 97.9114C419.179 97.7282 419.322 97.22 419.5 96.8677C419.678 96.5155 419.798 88.9425 419.609 85.1963C419.635 84.2553 419.027 83.6939 417.822 83.7203C416.616 83.7468 416.332 84.3975 416.1 85.1689Z" fill="url(#paint15_linear_320_2395)"/>
<path d="M444.268 105.016C443.464 104.976 433.276 108.125 432.958 108.349C432.64 108.573 431.931 108.887 432.345 109.886C432.811 111.012 433.339 111.029 433.723 111.118C434.108 111.206 441.489 109.51 445.082 108.43C446.001 108.229 446.401 107.505 446.087 106.341C445.773 105.177 445.073 105.056 444.268 105.016Z" fill="url(#paint16_linear_320_2395)"/>
<path d="M211.557 154.684H386.444V159.768H210.54L211.557 154.684Z" fill="#D9D9D9"/>
<path d="M211.557 154.684H386.444V159.768H210.54L211.557 154.684Z" fill="url(#paint17_linear_320_2395)"/>
<path d="M99.2017 154.684H171.902L172.919 159.768H99.2017V154.684Z" fill="url(#paint18_linear_320_2395)"/>
<path fill-rule="evenodd" clip-rule="evenodd" d="M96.6597 163.199C98.0636 163.199 99.2017 162.061 99.2017 160.657V153.54C99.2017 152.136 98.0636 150.998 96.6597 150.998H89.5422C88.1383 150.998 87.0002 152.136 87.0002 153.54V160.657C87.0002 162.061 88.1383 163.199 89.5422 163.199H96.6597ZM90.559 159.64H95.6429V154.557H90.559V159.64Z" fill="url(#paint19_linear_320_2395)"/>
<path fill-rule="evenodd" clip-rule="evenodd" d="M96.6597 163.199C98.0636 163.199 99.2017 162.061 99.2017 160.657V153.54C99.2017 152.136 98.0636 150.998 96.6597 150.998H89.5422C88.1383 150.998 87.0002 152.136 87.0002 153.54V160.657C87.0002 162.061 88.1383 163.199 89.5422 163.199H96.6597ZM90.559 159.64H95.6429V154.557H90.559V159.64Z" fill="url(#paint20_linear_320_2395)" fill-opacity="0.2"/>
<path fill-rule="evenodd" clip-rule="evenodd" d="M96.6597 163.199C98.0636 163.199 99.2017 162.061 99.2017 160.657V153.54C99.2017 152.136 98.0636 150.998 96.6597 150.998H89.5422C88.1383 150.998 87.0002 152.136 87.0002 153.54V160.657C87.0002 162.061 88.1383 163.199 89.5422 163.199H96.6597ZM90.559 159.64H95.6429V154.557H90.559V159.64Z" fill="url(#paint21_linear_320_2395)" fill-opacity="0.2"/>
</g>
<defs>
<filter id="filter0_d_320_2395" x="0.0298157" y="-0.491377" width="533.94" height="285.787" filterUnits="userSpaceOnUse" color-interpolation-filters="sRGB">
<feFlood flood-opacity="0" result="BackgroundImageFix"/>
<feColorMatrix in="SourceAlpha" type="matrix" values="0 0 0 0 0 0 0 0 0 0 0 0 0 0 0 0 0 0 127 0" result="hardAlpha"/>
<feOffset dy="3.47881"/>
<feGaussianBlur stdDeviation="43.4851"/>
<feComposite in2="hardAlpha" operator="out"/>
<feColorMatrix type="matrix" values="0 0 0 0 1 0 0 0 0 1 0 0 0 0 1 0 0 0 0.25 0"/>
<feBlend mode="normal" in2="BackgroundImageFix" result="effect1_dropShadow_320_2395"/>
<feBlend mode="normal" in="SourceGraphic" in2="effect1_dropShadow_320_2395" result="shape"/>
</filter>
<linearGradient id="paint0_linear_320_2395" x1="376.904" y1="135.869" x2="264.546" y2="126.102" gradientUnits="userSpaceOnUse">
<stop offset="0.179533" stop-color="#1497CF"/>
<stop offset="0.61" stop-color="#39B5DF"/>
<stop offset="1" stop-color="#319ECD"/>
</linearGradient>
<linearGradient id="paint1_linear_320_2395" x1="323.904" y1="125.702" x2="322.379" y2="156.965" gradientUnits="userSpaceOnUse">
<stop stop-opacity="0"/>
<stop offset="1"/>
</linearGradient>
<linearGradient id="paint2_linear_320_2395" x1="346.779" y1="123.161" x2="358.724" y2="96.7272" gradientUnits="userSpaceOnUse">
<stop stop-opacity="0"/>
<stop offset="1"/>
</linearGradient>
<linearGradient id="paint3_linear_320_2395" x1="111.166" y1="102.827" x2="260.757" y2="102.827" gradientUnits="userSpaceOnUse">
<stop stop-color="#EEC857"/>
<stop offset="0.286154" stop-color="#E1AB3F"/>
<stop offset="0.674273" stop-color="#E0AA3E"/>
<stop offset="1" stop-color="#EEC958"/>
</linearGradient>
<radialGradient id="paint4_radial_320_2395" cx="0" cy="0" r="1" gradientUnits="userSpaceOnUse" gradientTransform="translate(254.386 149.594) rotate(-132.32) scale(33.6873 21.0457)">
<stop stop-color="#E5C054"/>
<stop offset="0.895" stop-color="#E5C054"/>
<stop offset="1" stop-color="#E5C054" stop-opacity="0"/>
</radialGradient>
<linearGradient id="paint5_linear_320_2395" x1="183.286" y1="133.581" x2="183.286" y2="162.811" gradientUnits="userSpaceOnUse">
<stop stop-opacity="0"/>
<stop offset="1"/>
</linearGradient>
<linearGradient id="paint6_linear_320_2395" x1="398.646" y1="157.098" x2="386.444" y2="157.098" gradientUnits="userSpaceOnUse">
<stop stop-color="#9E9FA3"/>
<stop offset="0.0541298" stop-color="#121212"/>
<stop offset="0.337827" stop-color="#44444C"/>
<stop offset="0.600033" stop-color="#4E4E55"/>
<stop offset="1" stop-color="#333339"/>
</linearGradient>
<linearGradient id="paint7_linear_320_2395" x1="387.97" y1="153.794" x2="386.953" y2="150.998" gradientUnits="userSpaceOnUse">
<stop stop-color="white" stop-opacity="0"/>
<stop offset="0.273392" stop-color="white" stop-opacity="0.457128"/>
<stop offset="1" stop-color="white"/>
</linearGradient>
<linearGradient id="paint8_linear_320_2395" x1="393.053" y1="159.132" x2="393.562" y2="163.199" gradientUnits="userSpaceOnUse">
<stop stop-color="white" stop-opacity="0"/>
<stop offset="0.273392" stop-color="white" stop-opacity="0.457128"/>
<stop offset="1" stop-color="white"/>
</linearGradient>
<linearGradient id="paint9_linear_320_2395" x1="412.372" y1="138.669" x2="397.121" y2="138.669" gradientUnits="userSpaceOnUse">
<stop stop-color="#32B0DC"/>
<stop offset="0.04" stop-color="#1497CF"/>
<stop offset="0.61" stop-color="#39B5DF"/>
<stop offset="1" stop-color="#319ECD"/>
</linearGradient>
<linearGradient id="paint10_linear_320_2395" x1="405.382" y1="139.178" x2="404.791" y2="147.269" gradientUnits="userSpaceOnUse">
<stop stop-opacity="0"/>
<stop offset="1"/>
</linearGradient>
<linearGradient id="paint11_linear_320_2395" x1="408.242" y1="135.619" x2="412.201" y2="131.238" gradientUnits="userSpaceOnUse">
<stop stop-opacity="0"/>
<stop offset="1"/>
</linearGradient>
<linearGradient id="paint12_linear_320_2395" x1="406.649" y1="103.675" x2="425.902" y2="103.675" gradientUnits="userSpaceOnUse">
<stop offset="0.0448334" stop-color="#EEC857"/>
<stop offset="0.254279" stop-color="#EEC857"/>
<stop offset="0.973684" stop-color="#E1AB3F"/>
<stop offset="1" stop-color="#EEC958"/>
</linearGradient>
<linearGradient id="paint13_linear_320_2395" x1="415.931" y1="113.927" x2="415.931" y2="123.672" gradientUnits="userSpaceOnUse">
<stop stop-opacity="0"/>
<stop offset="1"/>
</linearGradient>
<linearGradient id="paint14_linear_320_2395" x1="429.851" y1="87.2227" x2="437.607" y2="88.2977" gradientUnits="userSpaceOnUse">
<stop offset="0.0448334" stop-color="#EEC857"/>
<stop offset="0.254279" stop-color="#EEC857"/>
<stop offset="0.973684" stop-color="#E1AB3F"/>
<stop offset="1" stop-color="#EEC958"/>
</linearGradient>
<linearGradient id="paint15_linear_320_2395" x1="411.776" y1="86.8038" x2="418.743" y2="83.2307" gradientUnits="userSpaceOnUse">
<stop offset="0.0448334" stop-color="#EEC857"/>
<stop offset="0.254279" stop-color="#EEC857"/>
<stop offset="0.973684" stop-color="#E1AB3F"/>
<stop offset="1" stop-color="#EEC958"/>
</linearGradient>
<linearGradient id="paint16_linear_320_2395" x1="441.646" y1="101.209" x2="446.783" y2="107.119" gradientUnits="userSpaceOnUse">
<stop offset="0.0448334" stop-color="#EEC857"/>
<stop offset="0.254279" stop-color="#EEC857"/>
<stop offset="0.973684" stop-color="#E1AB3F"/>
<stop offset="1" stop-color="#EEC958"/>
</linearGradient>
<linearGradient id="paint17_linear_320_2395" x1="211.557" y1="157.226" x2="386.444" y2="157.226" gradientUnits="userSpaceOnUse">
<stop stop-color="#606060"/>
<stop offset="1" stop-color="#36363C"/>
</linearGradient>
<linearGradient id="paint18_linear_320_2395" x1="99.2017" y1="154.938" x2="171.902" y2="159.768" gradientUnits="userSpaceOnUse">
<stop stop-color="#34343A"/>
<stop offset="1" stop-color="#727279"/>
</linearGradient>
<linearGradient id="paint19_linear_320_2395" x1="87.0002" y1="157.098" x2="99.2017" y2="157.098" gradientUnits="userSpaceOnUse">
<stop stop-color="#9E9FA3"/>
<stop offset="0.0541298" stop-color="#121212"/>
<stop offset="0.337827" stop-color="#44444C"/>
<stop offset="0.600033" stop-color="#4E4E55"/>
<stop offset="1" stop-color="#333339"/>
</linearGradient>
<linearGradient id="paint20_linear_320_2395" x1="97.6765" y1="160.403" x2="98.6933" y2="163.199" gradientUnits="userSpaceOnUse">
<stop stop-color="white" stop-opacity="0"/>
<stop offset="0.273392" stop-color="white" stop-opacity="0.457128"/>
<stop offset="1" stop-color="white"/>
</linearGradient>
<linearGradient id="paint21_linear_320_2395" x1="92.5925" y1="155.065" x2="92.0841" y2="150.998" gradientUnits="userSpaceOnUse">
<stop stop-color="white" stop-opacity="0"/>
<stop offset="0.273392" stop-color="white" stop-opacity="0.457128"/>
<stop offset="1" stop-color="white"/>
</linearGradient>
</defs>
</svg>
