<svg width="24" height="25" viewBox="0 0 24 25" fill="none" xmlns="http://www.w3.org/2000/svg">
<mask id="mask0_356_2701" style="mask-type:alpha" maskUnits="userSpaceOnUse" x="0" y="0" width="24" height="25">
<rect y="0.84668" width="24" height="24" fill="#D9D9D9"/>
</mask>
<g mask="url(#mask0_356_2701)">
<path d="M11.9808 22.3467C10.6846 22.3467 9.46025 22.097 8.30775 21.5977C7.15508 21.0983 6.14867 20.4185 5.2885 19.5582C4.42817 18.698 3.74833 17.69 3.249 16.5342C2.74967 15.3783 2.5 14.1492 2.5 12.8467C2.5 11.5275 2.75642 10.29 3.26925 9.13418C3.78208 7.97835 4.47858 6.97293 5.35875 6.11793C6.23875 5.26276 7.26825 4.5871 8.44725 4.09093C9.62608 3.59476 10.8834 3.34668 12.2192 3.34668C13.4692 3.34668 14.6538 3.55985 15.773 3.98618C16.8923 4.41251 17.8753 5.0026 18.722 5.75643C19.5688 6.51026 20.2435 7.4061 20.746 8.44393C21.2487 9.4816 21.5 10.6068 21.5 11.8197C21.5 13.5505 20.9856 14.9043 19.9568 15.8812C18.9279 16.8582 17.609 17.3467 16 17.3467H14.1885C13.9038 17.3467 13.6762 17.4396 13.5057 17.6254C13.3352 17.8114 13.25 18.0313 13.25 18.2852C13.25 18.5942 13.375 18.9153 13.625 19.2487C13.875 19.582 14 19.9647 14 20.3967C14 21.0568 13.8173 21.5469 13.452 21.8669C13.0865 22.1868 12.5961 22.3467 11.9808 22.3467ZM6.5 13.5967C6.85633 13.5967 7.15375 13.4774 7.39225 13.2389C7.63075 13.0004 7.75 12.703 7.75 12.3467C7.75 11.9903 7.63075 11.6929 7.39225 11.4544C7.15375 11.2159 6.85633 11.0967 6.5 11.0967C6.14367 11.0967 5.84625 11.2159 5.60775 11.4544C5.36925 11.6929 5.25 11.9903 5.25 12.3467C5.25 12.703 5.36925 13.0004 5.60775 13.2389C5.84625 13.4774 6.14367 13.5967 6.5 13.5967ZM9.5 9.59668C9.85633 9.59668 10.1537 9.47743 10.3923 9.23893C10.6307 9.00043 10.75 8.70301 10.75 8.34668C10.75 7.99035 10.6307 7.69293 10.3923 7.45443C10.1537 7.21593 9.85633 7.09668 9.5 7.09668C9.14367 7.09668 8.84625 7.21593 8.60775 7.45443C8.36925 7.69293 8.25 7.99035 8.25 8.34668C8.25 8.70301 8.36925 9.00043 8.60775 9.23893C8.84625 9.47743 9.14367 9.59668 9.5 9.59668ZM14.5 9.59668C14.8563 9.59668 15.1538 9.47743 15.3923 9.23893C15.6307 9.00043 15.75 8.70301 15.75 8.34668C15.75 7.99035 15.6307 7.69293 15.3923 7.45443C15.1538 7.21593 14.8563 7.09668 14.5 7.09668C14.1437 7.09668 13.8462 7.21593 13.6077 7.45443C13.3693 7.69293 13.25 7.99035 13.25 8.34668C13.25 8.70301 13.3693 9.00043 13.6077 9.23893C13.8462 9.47743 14.1437 9.59668 14.5 9.59668ZM17.5 13.5967C17.8563 13.5967 18.1538 13.4774 18.3923 13.2389C18.6308 13.0004 18.75 12.703 18.75 12.3467C18.75 11.9903 18.6308 11.6929 18.3923 11.4544C18.1538 11.2159 17.8563 11.0967 17.5 11.0967C17.1437 11.0967 16.8462 11.2159 16.6077 11.4544C16.3693 11.6929 16.25 11.9903 16.25 12.3467C16.25 12.703 16.3693 13.0004 16.6077 13.2389C16.8462 13.4774 17.1437 13.5967 17.5 13.5967ZM11.9808 20.8467C12.1436 20.8467 12.2708 20.8066 12.3625 20.7264C12.4542 20.6463 12.5 20.5363 12.5 20.3967C12.5 20.1633 12.375 19.9012 12.125 19.6102C11.875 19.3192 11.75 18.8634 11.75 18.2429C11.75 17.5301 11.9917 16.9525 12.475 16.5102C12.9583 16.0678 13.55 15.8467 14.25 15.8467H16C17.177 15.8467 18.1379 15.5018 18.8827 14.8122C19.6276 14.1223 20 13.1248 20 11.8197C20 9.79668 19.2243 8.12876 17.673 6.81593C16.1218 5.5031 14.3039 4.84668 12.2192 4.84668C9.93342 4.84668 7.99208 5.62168 6.39525 7.17168C4.79842 8.72168 4 10.6133 4 12.8467C4 15.0633 4.77917 16.9508 6.3375 18.5092C7.89583 20.0675 9.77692 20.8467 11.9808 20.8467Z" fill="white"/>
</g>
</svg>
