<svg width="24" height="25" viewBox="0 0 24 25" fill="none" xmlns="http://www.w3.org/2000/svg">
<mask id="mask0_356_2748" style="mask-type:alpha" maskUnits="userSpaceOnUse" x="0" y="0" width="24" height="25">
<rect y="0.84668" width="24" height="24" fill="#D9D9D9"/>
</mask>
<g mask="url(#mask0_356_2748)">
<path d="M15.8464 13.5389L11.8886 9.71018C11.4105 9.24868 11.0082 8.73493 10.6819 8.16893C10.3556 7.60293 10.1924 6.98651 10.1924 6.31968C10.1924 5.49385 10.4815 4.79193 11.0596 4.21393C11.6376 3.63576 12.3396 3.34668 13.1654 3.34668C13.7052 3.34668 14.2036 3.47685 14.6606 3.73718C15.1178 3.99735 15.5131 4.32876 15.8464 4.73143C16.1797 4.32876 16.5749 3.99735 17.0319 3.73718C17.4889 3.47685 17.9873 3.34668 18.5271 3.34668C19.353 3.34668 20.0549 3.63576 20.6329 4.21393C21.2111 4.79193 21.5001 5.49385 21.5001 6.31968C21.5001 6.98651 21.3396 7.60293 21.0184 8.16893C20.6972 8.73493 20.2976 9.24868 19.8194 9.71018L15.8464 13.5389ZM15.8464 11.4507L18.7059 8.67943C19.0417 8.34993 19.3414 7.9916 19.6049 7.60443C19.8684 7.21726 20.0001 6.78901 20.0001 6.31968C20.0001 5.90818 19.8575 5.55985 19.5721 5.27468C19.287 4.98935 18.9386 4.84668 18.5271 4.84668C18.2105 4.84668 17.9207 4.92935 17.6579 5.09468C17.3951 5.26018 17.163 5.46985 16.9616 5.72368L15.8464 7.08118L14.7309 5.72368C14.5296 5.46985 14.2975 5.26018 14.0346 5.09468C13.772 4.92935 13.4822 4.84668 13.1654 4.84668C12.7539 4.84668 12.4056 4.98935 12.1204 5.27468C11.8351 5.55985 11.6924 5.90818 11.6924 6.31968C11.6924 6.78901 11.8241 7.21726 12.0876 7.60443C12.3511 7.9916 12.6508 8.34993 12.9866 8.67943L15.8464 11.4507ZM6.70215 19.4237L13.9596 21.4774L19.9289 19.6274C19.8777 19.4006 19.772 19.2266 19.6116 19.1054C19.4513 18.9843 19.2699 18.9237 19.0674 18.9237H14.1701C13.7338 18.9237 13.3631 18.907 13.0579 18.8737C12.7527 18.8403 12.4392 18.7673 12.1174 18.6544L9.8599 17.9082L10.3039 16.4389L12.3289 17.1429C12.6316 17.2454 12.981 17.3153 13.3771 17.3524C13.7733 17.3896 14.3367 17.4133 15.0674 17.4237C15.0674 17.1762 15.0116 16.9627 14.9001 16.7832C14.7886 16.6037 14.6418 16.4825 14.4596 16.4197L8.6579 14.2889C8.63856 14.2826 8.6209 14.2778 8.6049 14.2747C8.5889 14.2713 8.57131 14.2697 8.55215 14.2697H6.70215V19.4237ZM1.70215 22.3467V12.7699H8.54065C8.64565 12.7699 8.75198 12.7814 8.85965 12.8044C8.96748 12.8276 9.06748 12.8545 9.15965 12.8852L14.9866 15.0314C15.4405 15.1993 15.8174 15.4963 16.1174 15.9227C16.4174 16.349 16.5674 16.8493 16.5674 17.4237H19.0674C19.7854 17.4237 20.3703 17.6554 20.8221 18.1189C21.2741 18.5823 21.5001 19.1838 21.5001 19.9237V20.7312L14.0096 23.0582L6.70215 20.9737V22.3467H1.70215ZM3.20215 20.8467H5.20215V14.2697H3.20215V20.8467Z" fill="white"/>
</g>
</svg>
